<?xml version="1.0" encoding="UTF-8"?>
<svg version="1.1" xmlns="http://www.w3.org/2000/svg" width="481" height="512">
<path d="M0 0 C158.73 0 317.46 0 481 0 C481 168.96 481 337.92 481 512 C322.27 512 163.54 512 0 512 C0 343.04 0 174.08 0 0 Z " fill="#FDFEFD" transform="translate(0,0)"/>
<path d="M0 0 C50.49 0 100.98 0 153 0 C158.36563888 12.51982406 160.20773641 18.01217996 160.3125 30.5 C160.34150391 31.62148437 160.37050781 32.74296875 160.40039062 33.8984375 C160.4611715 41.99632025 158.96836763 48.49636475 156 56 C155.2697552 57.95793156 154.54044235 59.91621124 153.8125 61.875 C153.32716797 63.13957031 153.32716797 63.13957031 152.83203125 64.4296875 C147.98600215 79.40004969 149.48068014 97.91399413 156 112 C156.33 113.32 156.66 114.64 157 116 C106.51 116 56.02 116 4 116 C-4.12103791 93.95718281 -4.12103791 93.95718281 -3.6875 84.6875 C-3.65124512 83.16842041 -3.65124512 83.16842041 -3.61425781 81.61865234 C-3.19411448 70.76610708 -0.33430186 61.3420957 4.16796875 51.4765625 C6.60849495 44.21227326 6.28589829 36.0816076 6.5625 28.5 C6.60568359 27.39140625 6.64886719 26.2828125 6.69335938 25.140625 C6.79862214 22.42718494 6.90075846 19.71366583 7 17 C6.34 17 5.68 17 5 17 C4.80664062 16.27554688 4.61328125 15.55109375 4.4140625 14.8046875 C4.15367187 13.83789062 3.89328125 12.87109375 3.625 11.875 C3.24214844 10.44800781 3.24214844 10.44800781 2.8515625 8.9921875 C1.9908316 5.96778443 0.99437778 2.98313333 0 0 Z " fill="#020202" transform="translate(162,202)"/>
</svg>
